<?xml version="1.0" standalone="no"?>
<!DOCTYPE svg PUBLIC "-//W3C//DTD SVG 20010904//EN"
 "http://www.w3.org/TR/2001/REC-SVG-20010904/DTD/svg10.dtd">
<svg version="1.0" xmlns="http://www.w3.org/2000/svg"
 width="1074.000000pt" height="818.000000pt" viewBox="0 0 1074.000000 818.000000"
 preserveAspectRatio="xMidYMid meet">

<g transform="translate(0.000000,818.000000) scale(0.100000,-0.100000)"
fill="#000000" stroke="none">
<path d="M5950 6840 c30 -10 177 -57 325 -105 836 -270 1644 -638 2078 -949
251 -179 500 -416 654 -623 389 -519 496 -992 332 -1460 -126 -359 -426 -710
-812 -949 -228 -142 -599 -293 -915 -374 -75 -19 -102 -67 -66 -119 19 -27 24
-27 314 13 912 125 1344 240 1805 480 445 232 767 516 923 815 218 416 185
881 -92 1294 -120 179 -307 380 -496 530 -243 195 -674 446 -1065 622 -569
255 -1365 514 -2045 664 -269 59 -946 183 -985 180 -5 0 15 -9 45 -19z"/>
<path d="M6327 5593 c-16 -4 -17 -30 -15 -406 l3 -402 73 1 c118 3 240 57 307
136 16 18 42 62 59 98 28 59 31 74 31 165 0 94 -2 104 -36 175 -41 85 -110
160 -179 195 -72 36 -183 54 -243 38z"/>
</g>
</svg>
